# File created by Blade
# Date/Time:  Thu Jan 22 18:06:37 2015
#---------------------------------------------------------
:version 1.10
:name HOM
:units
  mass 1.0
  length 1.000000
  angle deg
:documentation
     Acclaim Skeleton File
:root
   axis xyz
   order TX TY TZ RX RY RZ
   position 0.000000 0.000000 0.000000
   orientation 0 0 0
:bonedata
   begin
      id 1
      name RightUpLeg_dum
      direction -1.000000 0.000000 0.000000
      length 4.478084
      axis 0.0 0.0 0.0 xyz
   end
   begin
      id 2
      name LeftUpLeg_dum
      direction 1.000000 0.000000 0.000000
      length 4.478084
      axis 0.0 0.0 0.0 xyz
   end
   begin
      id 3
      name Spine_dum
      direction 0.000000 1.000000 0.000000
      length 6.068208
      axis 0.0 0.0 0.0 xyz
   end
   begin
      id 4
      name RightUpLeg
      direction 0.000000 -1.000000 0.000000
      length 16.405774
      axis 0.0 0.0 0.0 xyz
      dof rx ry rz
   end
   begin
      id 5
      name RightLeg
      direction 0.000000 -1.000000 0.000000
      length 14.644143
      axis 0.0 0.0 0.0 xyz
      dof rx ry rz
   end
   begin
      id 6
      name RightFoot
      direction 0.000000 -0.258819 0.965926
      length 5.806150
      axis 15.0 0.0 0.0 xyz
      dof rx ry rz
   end
   begin
      id 7
      name RightToeBase
      direction 0.000000 0.000000 1.000000
      length 2.952750
      axis 0.0 0.0 0.0 xyz
      dof rx ry rz
   end
   begin
      id 8
      name LeftUpLeg
      direction 0.000000 -1.000000 0.000000
      length 16.405774
      axis 0.0 0.0 0.0 xyz
      dof rx ry rz
   end
   begin
      id 9
      name LeftLeg
      direction 0.000000 -1.000000 0.000000
      length 14.644143
      axis 0.0 0.0 0.0 xyz
      dof rx ry rz
   end
   begin
      id 10
      name LeftFoot
      direction 0.000000 -0.258819 0.965926
      length 5.806150
      axis 15.0 0.0 0.0 xyz
      dof rx ry rz
   end
   begin
      id 11
      name LeftToeBase
      direction 0.000000 0.000000 1.000000
      length 2.952750
      axis 0.0 0.0 0.0 xyz
      dof rx ry rz
   end
   begin
      id 12
      name Spine
      direction 0.000000 1.000000 0.000000
      length 0.000000
      axis 0.0 0.0 0.0 xyz
      dof rx ry rz
   end
   begin
      id 13
      name Spine_dum1
      direction 0.000000 1.000000 0.000000
      length 10.013923
      axis 0.0 0.0 0.0 xyz
   end
   begin
      id 14
      name Spine_dum2
      direction 0.000000 1.000000 0.000000
      length 10.013923
      axis 0.0 0.0 0.0 xyz
   end
   begin
      id 15
      name Spine_dum3
      direction 0.000000 1.000000 0.000000
      length 15.777476
      axis 0.0 0.0 0.0 xyz
   end
   begin
      id 16
      name RightShoulder
      direction -1.000000 0.000000 0.000000
      length 7.190220
      axis 0.0 0.0 90.0 xyz
      dof rx ry rz
   end
   begin
      id 17
      name RightArm
      direction -1.000000 0.000000 0.000000
      length 10.177469
      axis 0.0 0.0 90.0 xyz
      dof rx ry rz
   end
   begin
      id 18
      name RightForeArm
      direction -1.000000 0.000000 0.000000
      length 8.392114
      axis 0.0 0.0 90.0 xyz
      dof ry rz rx
   end
   begin
      id 19
      name RightHand
      direction -1.000000 0.000000 0.000000
      length 0.000000
      axis 0.0 0.0 90.0 xyz
      dof rx ry rz
   end
   begin
      id 20
      name RightHand_dum1
      direction -1.000000 0.000000 0.000000
      length 3.937000
      axis 0.0 0.0 90.0 xyz
   end
   begin
      id 21
      name RightHand_dum2
      direction 0.000000 0.000000 0.000000
      length 0.000000
      axis 0.0 0.0 90.0 xyz
   end
   begin
      id 22
      name RightHandThumb1
      direction 0.000000 0.000000 1.000000
      length 3.937000
      axis 0.0 0.0 90.0 xyz
      dof rx rz ry
   end
   begin
      id 23
      name LeftShoulder
      direction 1.000000 0.000000 0.000000
      length 7.190220
      axis 0.0 0.0 -90.0 xyz
      dof rx ry rz
   end
   begin
      id 24
      name LeftArm
      direction 1.000000 0.000000 0.000000
      length 10.177469
      axis 0.0 0.0 -90.0 xyz
      dof rx ry rz
   end
   begin
      id 25
      name LeftForeArm
      direction 1.000000 0.000000 0.000000
      length 8.392114
      axis 0.0 0.0 -90.0 xyz
      dof ry rz rx
   end
   begin
      id 26
      name LeftHand
      direction 1.000000 0.000000 0.000000
      length 0.000000
      axis 0.0 0.0 -90.0 xyz
      dof rx ry rz
   end
   begin
      id 27
      name LeftHand_dum1
      direction 1.000000 0.000000 0.000000
      length 3.937000
      axis 0.0 0.0 -90.0 xyz
   end
   begin
      id 28
      name LeftHand_dum2
      direction 0.000000 0.000000 0.000000
      length 0.000000
      axis 0.0 0.0 -90.0 xyz
   end
   begin
      id 29
      name LeftHandThumb1
      direction 0.000000 0.000000 1.000000
      length 3.937000
      axis 0.0 0.0 -90.0 xyz
      dof rx rz ry
   end
   begin
      id 30
      name Head
      direction 0.000000 1.000000 0.000000
      length 4.527550
      axis 0.0 0.0 0.0 xyz
      dof rx ry rz
   end
:hierarchy
   begin
      root RightUpLeg_dum LeftUpLeg_dum Spine_dum
      RightUpLeg_dum RightUpLeg
      LeftUpLeg_dum LeftUpLeg
      Spine_dum Spine
      RightUpLeg RightLeg
      RightLeg RightFoot
      RightFoot RightToeBase
      LeftUpLeg LeftLeg
      LeftLeg LeftFoot
      LeftFoot LeftToeBase
      Spine Spine_dum1 Spine_dum2 Spine_dum3
      Spine_dum1 RightShoulder
      Spine_dum2 LeftShoulder
      Spine_dum3 Head
      RightShoulder RightArm
      RightArm RightForeArm
      RightForeArm RightHand
      RightHand RightHand_dum1 RightHand_dum2
      RightHand_dum2 RightHandThumb1
      LeftShoulder LeftArm
      LeftArm LeftForeArm
      LeftForeArm LeftHand
      LeftHand LeftHand_dum1 LeftHand_dum2
      LeftHand_dum2 LeftHandThumb1
   end

# File created by Blade
# Date/Time:  Thu Jan 22 18:06:27 2015
# Frame Rate: 120.000 fps
#------------------------------------------------------
:FULLY-SPECIFIED
:DEGREES
1024
root 0.387903 32.800316 -1.972799 7.452797 19.799819 4.949946
RightUpLeg -27.411672 10.813846 0.910396
RightLeg 115.727716 -0.000000 -0.000000
RightFoot 8.053982 -14.131354 -12.733467
RightToeBase -2.630870 -0.000000 0.000000
LeftUpLeg 0.536033 -13.297705 -10.682915
LeftLeg -0.732214 -0.000000 0.000000
LeftFoot -7.107948 -4.396215 -3.551422
LeftToeBase 8.399924 -0.000000 -0.000000
Spine -10.126143 -9.654008 -4.154679
RightShoulder -19.949874 -20.396425 -21.388999
RightArm 14.573973 28.110218 51.655304
RightForeArm -8.737668 -0.000000 16.849913
RightHand 7.765417 -0.000000 8.792956
RightHandThumb1 -24.326973 -0.000000 -32.862282
LeftShoulder -21.011957 1.653947 24.276809
LeftArm 29.771805 -25.057136 -56.794164
LeftForeArm 4.297284 -0.000000 44.986910
LeftHand 0.393877 -0.000000 35.653584
LeftHandThumb1 -26.253704 0.000000 33.147579
Head 19.486538 3.513937 -1.917337
1025
root 0.392869 32.803128 -1.965671 7.455556 19.966057 4.915434
RightUpLeg -27.354942 10.963533 0.874205
RightLeg 114.888722 -0.000000 -0.000000
RightFoot 7.423931 -14.406863 -12.235016
RightToeBase -2.556213 -0.000000 0.000000
LeftUpLeg 0.474919 -13.024945 -10.629745
LeftLeg -0.594803 -0.000000 0.000000
LeftFoot -7.144361 -4.836984 -3.634730
LeftToeBase 8.589271 -0.000000 -0.000000
Spine -10.129816 -9.779404 -4.085573
RightShoulder -19.938723 -20.354135 -21.389450
RightArm 14.512479 28.121939 51.629604
RightForeArm -8.746728 -0.000000 16.919449
RightHand 7.797520 -0.000000 8.830031
RightHandThumb1 -24.326973 -0.000000 -32.862282
LeftShoulder -21.007880 1.631183 24.293887
LeftArm 29.917662 -24.971947 -56.914729
LeftForeArm 4.267160 -0.000000 44.855175
LeftHand 0.490933 -0.000000 35.637126
LeftHandThumb1 -26.253704 0.000000 33.147579
Head 19.576984 3.513075 -1.920824
1026
root 0.399498 32.806734 -1.958325 7.470553 20.104825 4.901132
RightUpLeg -27.298055 11.136591 0.806716
RightLeg 114.041429 -0.000000 -0.000000
RightFoot 6.464342 -14.696089 -11.638052
RightToeBase -2.637166 -0.000000 0.000000
LeftUpLeg 0.468789 -12.927277 -10.603053
LeftLeg -0.578253 -0.000000 0.000000
LeftFoot -7.118665 -5.055773 -3.745306
LeftToeBase 8.744106 -0.000000 -0.000000
Spine -10.141379 -9.846247 -4.053300
RightShoulder -19.960768 -20.341238 -21.374294
RightArm 14.451551 28.155701 51.625307
RightForeArm -8.801257 -0.000000 16.998997
RightHand 7.749208 -0.000000 8.693975
RightHandThumb1 -24.326973 -0.000000 -32.862282
LeftShoulder -20.969509 1.529709 24.346814
LeftArm 29.981739 -24.853389 -57.016460
LeftForeArm 4.290390 -0.000000 44.779058
LeftHand 0.497083 -0.000000 35.752943
LeftHandThumb1 -26.253704 0.000000 33.147579
Head 19.667339 3.480023 -1.890186
1027
root 0.410526 32.812335 -1.953027 7.496352 20.252621 4.921448
RightUpLeg -27.234040 11.300406 0.628738
RightLeg 113.178645 -0.000000 -0.000000
RightFoot 5.295616 -14.834386 -10.943772
RightToeBase -3.227829 -0.000000 0.000000
LeftUpLeg 0.452473 -12.787852 -10.610443
LeftLeg -0.544887 -0.000000 0.000000
LeftFoot -7.053112 -5.333351 -3.848205
LeftToeBase 8.971642 -0.000000 -0.000000
Spine -10.148362 -9.930646 -4.038448
RightShoulder -19.980576 -20.369916 -21.347282
RightArm 14.440554 28.246137 51.643147
RightForeArm -8.770013 -0.000000 17.050918
RightHand 7.806680 -0.000000 8.816454
RightHandThumb1 -24.326973 -0.000000 -32.862282
LeftShoulder -20.936174 1.431536 24.368636
LeftArm 30.049299 -24.779426 -57.147429
LeftForeArm 4.330487 0.000000 44.753357
LeftHand 0.606519 -0.000000 35.636677
LeftHandThumb1 -26.253704 0.000000 33.147579
Head 19.743231 3.454621 -1.902246
1028
root 0.418206 32.815710 -1.944060 7.487026 20.436313 4.907037
RightUpLeg -27.110924 11.471897 0.560221
RightLeg 112.229414 -0.000000 -0.000000
RightFoot 4.219813 -14.702918 -10.895192
RightToeBase -3.230570 -0.000000 0.000000
LeftUpLeg 0.461464 -12.619487 -10.581475
LeftLeg -0.503386 -0.000000 0.000000
LeftFoot -7.040511 -5.673145 -3.950028
LeftToeBase 9.177456 -0.000000 -0.000000
Spine -10.121292 -10.017730 -4.007200
RightShoulder -19.980837 -20.307490 -21.369645
RightArm 14.288185 28.274362 51.619037
RightForeArm -8.753629 0.000000 17.102846
RightHand 7.789368 0.000000 8.708900
RightHandThumb1 -24.326973 -0.000000 -32.862282
LeftShoulder -20.886845 1.335324 24.402609
LeftArm 30.141512 -24.722443 -57.319716
LeftForeArm 4.439682 -0.000000 44.753362
LeftHand 0.554429 0.000000 35.628222
LeftHandThumb1 -26.253704 0.000000 33.147579
Head 19.774916 3.372624 -1.895783
1029
root 0.425757 32.818665 -1.935358 7.481704 20.591298 4.877836
RightUpLeg -27.012183 11.667840 0.465958
RightLeg 111.230512 -0.000000 -0.000000
RightFoot 3.095063 -14.486722 -10.509901
RightToeBase -3.173552 -0.000000 0.000000
LeftUpLeg 0.456437 -12.395885 -10.542760
LeftLeg -0.452618 -0.000000 0.000000
LeftFoot -7.026200 -6.027386 -4.043207
LeftToeBase 9.323669 -0.000000 -0.000000
Spine -10.102977 -10.072050 -3.953230
RightShoulder -20.046339 -20.409218 -21.317639
RightArm 14.352435 28.346607 51.652490
RightForeArm -8.699076 -0.000000 17.092598
RightHand 7.849210 -0.000000 8.826392
RightHandThumb1 -24.326973 -0.000000 -32.862282
LeftShoulder -20.839128 1.241124 24.428854
LeftArm 30.202346 -24.663146 -57.492247
LeftForeArm 4.540410 -0.000000 44.814612
LeftHand 0.644089 0.000000 35.426888
LeftHandThumb1 -26.253704 0.000000 33.147579
Head 19.787220 3.318737 -1.912971
1030
root 0.432680 32.821817 -1.928215 7.471418 20.760560 4.855061
RightUpLeg -26.896060 11.856690 0.324043
RightLeg 110.169023 -0.000000 -0.000000
RightFoot 1.951658 -14.204246 -10.012695
RightToeBase -4.073358 -0.000000 0.000000
LeftUpLeg 0.473976 -12.308617 -10.514605
LeftLeg -0.433908 -0.000000 0.000000
LeftFoot -7.012958 -6.224563 -4.131689
LeftToeBase 9.492646 -0.000000 -0.000000
Spine -10.057133 -10.145987 -3.920542
RightShoulder -20.119212 -20.474011 -21.247601
RightArm 14.413471 28.395719 51.666121
RightForeArm -8.677396 -0.000000 17.059330
RightHand 7.836926 -0.000000 8.774451
RightHandThumb1 -24.326973 -0.000000 -32.862282
LeftShoulder -20.798990 1.140994 24.475263
LeftArm 30.234413 -24.584018 -57.657567
LeftForeArm 4.500784 -0.000000 44.947024
LeftHand 0.653779 0.000000 35.464656
LeftHandThumb1 -26.253704 0.000000 33.147579
Head 19.755887 3.256794 -1.909385
1031
root 0.439738 32.824784 -1.920435 7.453702 20.910489 4.839040
RightUpLeg -26.763573 12.030712 0.205384
RightLeg 109.002971 -0.000000 -0.000000
RightFoot 0.842432 -13.988584 -9.235073
RightToeBase -4.681312 -0.000000 0.000000
LeftUpLeg 0.512512 -12.165020 -10.494007
LeftLeg -0.444667 -0.000000 0.000000
LeftFoot -6.967079 -6.470321 -4.174538
LeftToeBase 9.613120 -0.000000 -0.000000
Spine -9.999493 -10.192339 -3.900728
RightShoulder -20.154384 -20.455734 -21.225435
RightArm 14.344326 28.401145 51.634769
RightForeArm -8.665521 0.000000 17.041022
RightHand 7.847282 0.000000 8.808812
RightHandThumb1 -24.326973 -0.000000 -32.862282
LeftShoulder -20.759539 1.102816 24.492035
LeftArm 30.342040 -24.516196 -57.832107
LeftForeArm 4.703946 0.000000 45.047835
LeftHand 0.588296 -0.000000 35.376671
LeftHandThumb1 -26.253704 0.000000 33.147579
Head 19.716996 3.220323 -1.911471
1032
root 0.446224 32.828073 -1.913436 7.444858 21.055263 4.820709
RightUpLeg -26.620739 12.246184 0.077640
RightLeg 107.805918 -0.000000 -0.000000
RightFoot -0.549590 -13.679087 -8.299798
RightToeBase -5.290899 -0.000000 0.000000
LeftUpLeg 0.539526 -12.137943 -10.473387
LeftLeg -0.451067 -0.000000 0.000000
LeftFoot -6.940370 -6.582961 -4.195104
LeftToeBase 9.666271 -0.000000 -0.000000
Spine -9.958296 -10.236361 -3.877468
RightShoulder -20.163072 -20.429502 -21.224652
RightArm 14.258974 28.406908 51.606826
RightForeArm -8.684374 -0.000000 16.986602
RightHand 7.933802 -0.000000 8.829479
RightHandThumb1 -24.326973 -0.000000 -32.862282
LeftShoulder -20.719949 1.096656 24.507081
LeftArm 30.469941 -24.445451 -58.027935
LeftForeArm 4.714237 -0.000000 45.181757
LeftHand 0.604570 -0.000000 35.378452
LeftHandThumb1 -26.253704 0.000000 33.147579
Head 19.681896 3.176182 -1.910867
1033
root 0.450468 32.832404 -1.904257 7.428646 21.186487 4.781143
RightUpLeg -26.464323 12.430107 -0.025507
RightLeg 106.487905 -0.000000 -0.000000
RightFoot -1.734144 -13.549721 -7.838295
RightToeBase -6.479048 -0.000000 0.000000
LeftUpLeg 0.576295 -12.174339 -10.437862
LeftLeg -0.462884 -0.000000 0.000000
LeftFoot -6.934191 -6.593201 -4.232015
LeftToeBase 9.732086 -0.000000 -0.000000
Spine -9.920565 -10.259005 -3.843077
RightShoulder -20.178793 -20.442913 -21.200626
RightArm 14.201682 28.390749 51.576025
RightForeArm -8.682349 -0.000000 16.933206
RightHand 7.913246 -0.000000 8.810544
RightHandThumb1 -24.326973 -0.000000 -32.862282
LeftShoulder -20.691490 1.112794 24.508299
LeftArm 30.614243 -24.376109 -58.201793
LeftForeArm 4.832969 -0.000000 45.313211
LeftHand 0.665542 -0.000000 35.178778
LeftHandThumb1 -26.253704 0.000000 33.147579
Head 19.649915 3.122006 -1.903454
1034
root 0.454997 32.835169 -1.898924 7.419343 21.314877 4.728471
RightUpLeg -26.335503 12.692013 -0.149502
RightLeg 105.139248 -0.000000 -0.000000
RightFoot -3.187070 -13.251189 -6.785568
RightToeBase -7.812936 -0.000000 0.000000
LeftUpLeg 0.557710 -12.101776 -10.382007
LeftLeg -0.398630 -0.000000 0.000000
LeftFoot -6.957225 -6.743493 -4.223313
LeftToeBase 9.752757 -0.000000 -0.000000
Spine -9.888037 -10.272854 -3.783562
RightShoulder -20.194215 -20.509420 -21.181895
RightArm 14.212265 28.420298 51.594992
RightForeArm -8.703103 0.000000 16.863160
RightHand 7.799104 0.000000 8.719634
RightHandThumb1 -24.326973 -0.000000 -32.862282
LeftShoulder -20.657953 1.128757 24.514906
LeftArm 30.781857 -24.249180 -58.366407
LeftForeArm 4.878274 -0.000000 45.395091
LeftHand 0.726986 -0.000000 35.555279
LeftHandThumb1 -26.253704 0.000000 33.147579
Head 19.607851 3.056361 -1.912744
1035
root 0.460881 32.838551 -1.898281 7.426562 21.402054 4.687112
RightUpLeg -26.207760 12.885254 -0.297685
RightLeg 103.688799 -0.000000 -0.000000
RightFoot -4.652175 -13.230400 -5.939682
RightToeBase -8.919572 -0.000000 0.000000
LeftUpLeg 0.548872 -12.182592 -10.333580
LeftLeg -0.415663 -0.000000 0.000000
LeftFoot -6.928650 -6.760581 -4.339775
LeftToeBase 9.844497 -0.000000 -0.000000
Spine -9.862446 -10.253028 -3.729573
RightShoulder -20.195828 -20.513534 -21.182913
RightArm 14.169928 28.443888 51.586245
RightForeArm -8.720763 0.000000 16.794142
RightHand 7.820032 0.000000 8.783954
RightHandThumb1 -24.326973 -0.000000 -32.862282
LeftShoulder -20.623254 1.151430 24.510199
LeftArm 30.910247 -24.144077 -58.515702
LeftForeArm 4.890271 0.000000 45.555329
LeftHand 0.712599 -0.000000 35.267421
LeftHandThumb1 -26.253704 0.000000 33.147579
Head 19.555176 2.989554 -1.952459
1036
root 0.464663 32.841846 -1.895992 7.444847 21.490214 4.659215
RightUpLeg -26.070825 13.112913 -0.433569
RightLeg 102.143451 -0.000000 -0.000000
RightFoot -6.007376 -13.200714 -5.290605
RightToeBase -9.474343 -0.000000 0.000000
LeftUpLeg 0.507134 -12.124008 -10.304134
LeftLeg -0.369197 -0.000000 0.000000
LeftFoot -6.947418 -6.844042 -4.276682
LeftToeBase 9.902524 -0.000000 -0.000000
Spine -9.846157 -10.239996 -3.709147
RightShoulder -20.226175 -20.553084 -21.145075
RightArm 14.189183 28.489054 51.603145
RightForeArm -8.804995 0.000000 16.716500
RightHand 7.789701 -0.000000 8.693912
RightHandThumb1 -24.326973 -0.000000 -32.862282
LeftShoulder -20.588370 1.162089 24.527814
LeftArm 31.033578 -23.991189 -58.599922
LeftForeArm 4.913695 -0.000000 45.654938
LeftHand 0.703478 0.000000 35.458289
LeftHandThumb1 -26.253704 0.000000 33.147579
Head 19.510657 2.913429 -1.952064
